<?xml version="1.0" encoding="utf-8"?>
<!-- Generator: Adobe Illustrator 21.0.0, SVG Export Plug-In . SVG Version: 6.00 Build 0)  -->
<svg version="1.1" id="Layer_1" xmlns="http://www.w3.org/2000/svg" xmlns:xlink="http://www.w3.org/1999/xlink" x="0px" y="0px"
	 viewBox="0 0 50 50" style="enable-background:new 0 0 50 50;" xml:space="preserve">
<style type="text/css">
	.st0{fill:#FFFFFF;}
</style>
<path class="st0" d="M25,45.4c-6.7,0-12.5-3.2-16.3-8.2c4.1-2,9.9-4,16.3-4c6.4,0,12.2,2.1,16.3,4C37.5,42.1,31.7,45.4,25,45.4
	L25,45.4z M25,7.7c6.5,0,11.7,5.3,11.7,11.7c0,6.5-5.3,11.7-11.7,11.7s-11.7-5.3-11.7-11.7C13.3,13,18.5,7.7,25,7.7L25,7.7z M25,0.6
	C11.5,0.6,0.6,11.5,0.6,25s11,24.4,24.4,24.4s24.4-11,24.4-24.4S38.5,0.6,25,0.6L25,0.6z"/>
</svg>
