<?xml version="1.0" encoding="utf-8"?>
<!-- Generator: Adobe Illustrator 21.0.0, SVG Export Plug-In . SVG Version: 6.00 Build 0)  -->
<svg version="1.1" id="Layer_1" xmlns="http://www.w3.org/2000/svg" xmlns:xlink="http://www.w3.org/1999/xlink" x="0px" y="0px"
	 viewBox="0 0 50 50" style="enable-background:new 0 0 50 50;" xml:space="preserve">
<style type="text/css">
	.st0{fill:#FFFFFF;}
</style>
<g>
	<path class="st0" d="M42.8,1.3H7.2C4,1.3,1.3,4,1.3,7.2v31.6c0,3.3,2.7,5.9,5.9,5.9H21l0.7-3.9H7.2c-1.1,0-2-0.9-2-2V11.2h39.4v9.4
		c1.2,0.3,2.4,0.9,3.3,1.9l0.7,0.7V7.2C48.7,4,46,1.3,42.8,1.3L42.8,1.3z M42.8,1.3"/>
	<path class="st0" d="M39.3,14.2H10.7c-0.8,0-1.5,0.7-1.5,1.5v8.9c0,0.8,0.7,1.5,1.5,1.5h24l3-3H12.2v-5.9h25.6v5.8l0.1-0.1
		c1-1,2-1.6,2.9-1.9v-5.2C40.8,14.8,40.1,14.2,39.3,14.2L39.3,14.2z M39.3,14.2"/>
	<path class="st0" d="M31.8,28.9l-3,3h-18c-0.8,0-1.5-0.7-1.5-1.5c0-0.8,0.7-1.5,1.5-1.5H31.8z M31.8,28.9"/>
	<path class="st0" d="M25.8,34.8l-2.6,2.6c-0.1,0.1-0.2,0.2-0.3,0.4H10.8c-0.8,0-1.5-0.7-1.5-1.5c0-0.8,0.7-1.5,1.5-1.5H25.8z
		 M25.8,34.8"/>
	<path class="st0" d="M47.7,27.7l-2.4-2.4c-1-1-2.7-1.5-4.5,0.3L26,40.2c-0.2,0.2-0.4,0.5-0.4,0.8l-1,5.9c-0.1,0.5,0.1,1,0.4,1.3
		c0.3,0.3,0.7,0.4,1,0.4c0.1,0,0.2,0,0.3,0l5.9-1c0.3-0.1,0.6-0.2,0.8-0.4l14.6-14.6C49,31.2,49,29,47.7,27.7L47.7,27.7z M47.7,27.7
		"/>
	<path class="st0" d="M37.8,22.9V23h-0.2L37.8,22.9z M37.8,22.9"/>
</g>
</svg>
