<?xml version="1.0" encoding="utf-8"?>
<!-- Generator: Adobe Illustrator 21.0.0, SVG Export Plug-In . SVG Version: 6.00 Build 0)  -->
<svg version="1.1" id="Layer_1" xmlns="http://www.w3.org/2000/svg" xmlns:xlink="http://www.w3.org/1999/xlink" x="0px" y="0px"
	 viewBox="0 0 50 50" style="enable-background:new 0 0 50 50;" xml:space="preserve">
<style type="text/css">
	.st0{fill:#787878;}
</style>
<g>
	<g>
		<path class="st0" d="M42.8,1.2H7.2c-3.3,0-5.9,2.7-5.9,5.9v31.7c0,3.3,2.7,5.9,5.9,5.9H21l0.7-4H7.2c-1.1,0-2-0.9-2-2V11.1h39.6
			v9.4c1.2,0.3,2.4,0.9,3.3,1.9l0.7,0.7V7.2C48.8,3.9,46.1,1.2,42.8,1.2L42.8,1.2z M42.8,1.2"/>
		<g>
			<path class="st0" d="M25.8,34.9l-2.6,2.6c-0.1,0.1-0.2,0.2-0.3,0.4H10.7c-0.8,0-1.5-0.7-1.5-1.5c0-0.8,0.7-1.5,1.5-1.5H25.8z
				 M25.8,34.9"/>
			<path class="st0" d="M47.7,27.7l-2.4-2.4c-1-1-2.7-1.5-4.6,0.4L26,40.3c-0.2,0.2-0.4,0.5-0.4,0.8l-1,5.9c-0.1,0.5,0.1,1,0.4,1.3
				c0.3,0.3,0.7,0.4,1,0.4c0.1,0,0.2,0,0.3,0l5.9-1c0.3-0.1,0.6-0.2,0.8-0.4l14.7-14.7C49.1,31.2,49.1,29,47.7,27.7L47.7,27.7z
				 M47.7,27.7"/>
		</g>
	</g>
</g>
</svg>
