<?xml version="1.0" encoding="utf-8"?>
<!-- Generator: Adobe Illustrator 21.0.0, SVG Export Plug-In . SVG Version: 6.00 Build 0)  -->
<svg version="1.1" id="Layer_1" xmlns="http://www.w3.org/2000/svg" xmlns:xlink="http://www.w3.org/1999/xlink" x="0px" y="0px"
	 viewBox="0 0 50 50" style="enable-background:new 0 0 50 50;" xml:space="preserve">
<style type="text/css">
	.st0{fill:#FFFFFF;}
</style>
<path class="st0" d="M48.7,23.8c0.2-0.5,0.2-1,0-1.5c-0.1-0.2-0.2-0.5-0.4-0.6l-6-6c-0.8-0.8-2-0.8-2.8,0c-0.8,0.8-0.8,2,0,2.8
	l2.6,2.6H31c-1.1,0-2,0.9-2,2s0.9,2,2,2h11.1l-2.6,2.6c-0.8,0.8-0.8,2,0,2.8c0.4,0.4,0.9,0.6,1.4,0.6c0.5,0,1-0.2,1.4-0.6l6-6
	C48.5,24.2,48.6,24,48.7,23.8"/>
<path class="st0" d="M34.9,29c-1.1,0-2,0.9-2,2v9.9H25V9.1c0-0.9-0.6-1.7-1.4-1.9l-6.9-2.1H33v9.9c0,1.1,0.9,2,2,2c1.1,0,2-0.9,2-2
	V3.1c0-1.1-0.9-2-2-2H3.1c-0.1,0-0.1,0-0.2,0c-0.1,0-0.2,0-0.3,0C2.5,1.3,2.3,1.4,2.1,1.5c0,0-0.1,0-0.1,0.1c0,0,0,0,0,0
	C1.7,1.8,1.5,2,1.4,2.2c0,0.1,0,0.1-0.1,0.2C1.3,2.5,1.2,2.7,1.2,2.9c0,0.1,0,0.1,0,0.2c0,0,0,0.1,0,0.1v39.7c0,0.9,0.7,1.8,1.6,1.9
	l19.9,4c0.1,0,0.3,0,0.4,0c0.5,0,0.9-0.2,1.3-0.5c0.5-0.4,0.7-0.9,0.7-1.5v-2h9.9c1.1,0,2-0.9,2-2V31C36.9,29.9,36,29,34.9,29"/>
</svg>
