<?xml version="1.0" encoding="utf-8"?>
<!-- Generator: Adobe Illustrator 21.0.0, SVG Export Plug-In . SVG Version: 6.00 Build 0)  -->
<svg version="1.1" id="Layer_1" xmlns="http://www.w3.org/2000/svg" xmlns:xlink="http://www.w3.org/1999/xlink" x="0px" y="0px"
	 viewBox="0 0 50 50" style="enable-background:new 0 0 50 50;" xml:space="preserve">
<style type="text/css">
	.st0{fill:#222222;}
</style>
<path class="st0" d="M42.5,25.2c-1-1-2.5-1-3.5,0l-0.5,0.5l3.5,3.5l0.5-0.5C43.5,27.7,43.5,26.2,42.5,25.2L42.5,25.2z M38.6,32.6
	l-3.5-3.5l-9,9L24.7,43l5-1.4L38.6,32.6L38.6,32.6z M46,32.1L32.6,45.5c-0.3,0.3-0.7,0.5-1.1,0.6l-9.9,2.7c-0.2,0.1-0.4,0.1-0.7,0.1
	c-0.6,0-1.3-0.3-1.7-0.7c-0.6-0.6-0.8-1.6-0.6-2.4l2.9-9.6c0.1-0.4,0.3-0.7,0.6-1l13.4-13.4c2.9-2.9,7.5-2.9,10.4,0
	C48.9,24.6,48.9,29.3,46,32.1L46,32.1z M4.3,20.6c-1.3,0-2.4,1.1-2.4,2.4c0,1.3,1.1,2.4,2.4,2.4h15.3c1.3,0,2.4-1.1,2.4-2.4
	c0-1.3-1.1-2.4-2.4-2.4H4.3L4.3,20.6z M31.9,13.3c0-1.3-1.1-2.4-2.4-2.4H4.3c-1.3,0-2.4,1.1-2.4,2.4c0,1.3,1.1,2.4,2.4,2.4h25.2
	C30.8,15.7,31.9,14.6,31.9,13.3L31.9,13.3z M29.5,1.1H4.3C3,1.1,1.9,2.2,1.9,3.5c0,1.3,1.1,2.4,2.4,2.4h25.2c1.3,0,2.4-1.1,2.4-2.4
	C31.9,2.2,30.8,1.1,29.5,1.1L29.5,1.1z"/>
</svg>
